<?xml version="1.0" encoding="UTF-8" standalone="no"?>
<!-- Created with Inkscape (http://www.inkscape.org/) -->

<svg
   width="33.848392mm"
   height="35.084053mm"
   viewBox="0 0 33.848392 35.084053"
   version="1.1"
   id="svg1"
   xmlns:inkscape="http://www.inkscape.org/namespaces/inkscape"
   xmlns:sodipodi="http://sodipodi.sourceforge.net/DTD/sodipodi-0.dtd"
   xmlns="http://www.w3.org/2000/svg"
   xmlns:svg="http://www.w3.org/2000/svg">
  <sodipodi:namedview
     id="namedview1"
     pagecolor="#ffffff"
     bordercolor="#000000"
     borderopacity="0.25"
     inkscape:showpageshadow="2"
     inkscape:pageopacity="0.0"
     inkscape:pagecheckerboard="0"
     inkscape:deskcolor="#d1d1d1"
     inkscape:document-units="mm" />
  <defs
     id="defs1" />
  <g
     inkscape:label="Layer 1"
     inkscape:groupmode="layer"
     id="layer1"
     transform="translate(-3.3561219,-3.0234106)">
    <path
       id="path76"
       d="M 33.015206,33.739024 V 8.0649096 H 7.3410959 V 33.739024 Z"
       style="fill:none;stroke:#000000;stroke-width:0.423333;stroke-linecap:butt;stroke-linejoin:miter;stroke-miterlimit:4;stroke-dasharray:none;stroke-opacity:1" />
    <path
       id="path77"
       d="M 7.3410959,33.739024 33.015206,8.0649096"
       style="fill:none;stroke:#000000;stroke-width:0.423333;stroke-linecap:butt;stroke-linejoin:miter;stroke-miterlimit:4;stroke-dasharray:none;stroke-opacity:1" />
    <path
       id="path78"
       d="m 20.200906,33.764424 -0.493184,-0.81139 0.02752,-0.0183 1.323269,0.52564 c 0.460728,0.10125 0.921809,0.20285 1.382889,0.3041 -0.46108,0.1016 -0.922161,0.20284 -1.382889,0.30444 l -1.323269,0.52529 -0.02752,-0.0138 0.493184,-0.81597"
       style="fill:#000000;fill-opacity:1;fill-rule:nonzero;stroke:none;stroke-width:0.0352778" />
    <path
       id="path79"
       d="m 20.036511,8.0673786 -0.493536,-0.811389 0.02787,-0.01834 1.32327,0.525286 c 0.460728,0.1016 0.921808,0.202847 1.382889,0.304447 -0.461081,0.101247 -0.922161,0.202847 -1.382889,0.304095 l -1.32327,0.525639 -0.02787,-0.01376 0.493536,-0.815975"
       style="fill:#000000;fill-opacity:1;fill-rule:nonzero;stroke:none;stroke-width:0.0352778" />
    <path
       id="path80"
       d="m 7.3114629,21.330764 -0.811389,0.49319 -0.01834,-0.0275 0.525639,-1.32327 c 0.101247,-0.46073 0.202847,-0.92181 0.304094,-1.38289 0.1016,0.46108 0.202847,0.92216 0.304447,1.38289 l 0.525286,1.32327 -0.01376,0.0275 -0.815975,-0.49319"
       style="fill:#000000;fill-opacity:1;fill-rule:nonzero;stroke:none;stroke-width:0.0352778" />
    <path
       id="path81"
       d="m 33.010266,21.635214 -0.81139,0.49318 -0.0183,-0.0275 0.52529,-1.32327 c 0.1016,-0.46073 0.20285,-0.92181 0.30445,-1.38289 0.10124,0.46108 0.20284,0.92216 0.30409,1.38289 l 0.52564,1.32327 -0.0138,0.0275 -0.81598,-0.49318"
       style="fill:#000000;fill-opacity:1;fill-rule:nonzero;stroke:none;stroke-width:0.0352778" />
    <path
       id="path82"
       d="m 19.859064,21.223524 -0.922514,-0.22507 0.0063,-0.0325 1.307394,-0.56409 c 0.397581,-0.254 0.795162,-0.50835 1.193095,-0.76271 -0.254353,0.39794 -0.508706,0.79552 -0.762706,1.1931 l -0.564091,1.30739 -0.02928,0.01 -0.228247,-0.92604"
       style="fill:#000000;fill-opacity:1;fill-rule:nonzero;stroke:none;stroke-width:0.0352778" />
    <path
       id="path83"
       d="m 20.280633,37.127454 h 0.0254 c 0.108303,-0.20991 0.159103,-0.29669 0.23495,-0.40887 0.256823,-0.37994 0.539045,-0.59338 0.777875,-0.59338 0.227895,0 0.376061,0.18098 0.376061,0.4632 0,0.3616 -0.18803,0.78493 -0.491772,1.10667 -0.28575,0.30409 -0.539044,0.41239 -0.947914,0.41239 -0.06491,0 -0.13723,-0.004 -0.220486,-0.007 l -0.293158,-0.0145 0.466725,-2.33327 0.02187,-0.17357 c 0.0035,-0.0219 0.0035,-0.0469 0.0035,-0.0723 0,-0.0723 -0.01446,-0.0833 -0.133703,-0.0903 l -0.119592,-0.007 -0.03246,-0.004 0.02152,-0.10866 h 0.676628 z m -0.137583,0.7052 c 0.03281,0.018 0.05821,0.0289 0.0762,0.0324 0.09772,0.0399 0.256822,0.0688 0.361597,0.0688 0.173567,0 0.329142,-0.0903 0.426861,-0.24589 0.166511,-0.27481 0.314678,-0.75247 0.314678,-1.02376 0,-0.18098 -0.05785,-0.27834 -0.16263,-0.27834 -0.104775,0 -0.256823,0.0974 -0.376414,0.23848 -0.08678,0.10865 -0.191559,0.24235 -0.30727,0.41239 -0.16263,0.22437 -0.180975,0.2533 -0.253294,0.39794 l -0.07973,0.39793"
       style="fill:#000000;fill-opacity:1;fill-rule:nonzero;stroke:none;stroke-width:0.0352778" />
    <path
       id="path84"
       d="m 20.280633,4.8535726 h 0.0254 c 0.108303,-0.209902 0.159103,-0.296686 0.23495,-0.408869 0.256823,-0.379589 0.539045,-0.59302 0.777875,-0.59302 0.227895,0 0.376061,0.180623 0.376061,0.462845 0,0.361597 -0.18803,0.78493 -0.491772,1.107017 -0.28575,0.303741 -0.539044,0.412397 -0.947914,0.412397 -0.06491,0 -0.13723,-0.0035 -0.220486,-0.0074 l -0.293158,-0.01446 0.466725,-2.333273 0.02187,-0.173566 c 0.0035,-0.02152 0.0035,-0.04692 0.0035,-0.07232 0,-0.07232 -0.01446,-0.08325 -0.133703,-0.09031 l -0.119592,-0.0074 -0.03246,-0.0035 0.02152,-0.108303 h 0.676628 z m -0.137583,0.705203 c 0.03281,0.01834 0.05821,0.02893 0.0762,0.03281 0.09772,0.03951 0.256822,0.06879 0.361597,0.06879 0.173567,0 0.329142,-0.09066 0.426861,-0.246239 0.166511,-0.274814 0.314678,-0.752475 0.314678,-1.023761 0,-0.180622 -0.05785,-0.278342 -0.16263,-0.278342 -0.104775,0 -0.256823,0.09772 -0.376414,0.238831 -0.08678,0.108303 -0.191559,0.242358 -0.30727,0.412397 -0.16263,0.224014 -0.180975,0.253295 -0.253294,0.397934 l -0.07973,0.39758"
       style="fill:#000000;fill-opacity:1;fill-rule:nonzero;stroke:none;stroke-width:0.0352778" />
    <path
       id="path85"
       d="m 4.7453569,21.069354 -0.03986,0.0797 c -0.173919,0.32526 -0.307622,0.50624 -0.506589,0.69427 -0.166158,0.15557 -0.314677,0.22789 -0.470252,0.22789 -0.224014,0 -0.372534,-0.18062 -0.372534,-0.46284 0,-0.36195 0.188031,-0.7814 0.495653,-1.10702 0.282222,-0.2928 0.557036,-0.4124 0.958497,-0.4124 0.12312,0 0.300214,0.007 0.499181,0.0219 l -0.278342,1.39241 -0.03281,0.17357 c -0.0035,0.0328 -0.0071,0.0617 -0.0071,0.0871 0,0.0794 0.03634,0.11571 0.112184,0.11571 0.101247,0 0.303741,-0.14852 0.517172,-0.38699 l -0.03246,0.16263 c -0.26423,0.28575 -0.484716,0.41592 -0.694619,0.41592 -0.162983,0 -0.253294,-0.0938 -0.253294,-0.26388 0,-0.0579 0.01446,-0.16298 0.04339,-0.30409 l 0.08678,-0.43392 z m 0.08678,-0.74154 c -0.09772,-0.0363 -0.256823,-0.0653 -0.36195,-0.0653 -0.173567,0 -0.329142,0.0907 -0.426862,0.24589 -0.166158,0.27164 -0.314677,0.75247 -0.314677,1.02376 0,0.18097 0.05785,0.27869 0.162983,0.27869 0.104775,0 0.256822,-0.0977 0.372533,-0.23883 0.09031,-0.10865 0.191559,-0.24588 0.31115,-0.4124 0.162631,-0.22401 0.180623,-0.25329 0.252942,-0.39793 l 0.07973,-0.39793 c -0.03246,-0.018 -0.05786,-0.0289 -0.07585,-0.036"
       style="fill:#000000;fill-opacity:1;fill-rule:nonzero;stroke:none;stroke-width:0.0352778" />
    <path
       id="path86"
       d="m 36.328846,21.122984 -0.0399,0.0797 c -0.17356,0.32526 -0.30762,0.50624 -0.50659,0.69427 -0.16615,0.15558 -0.31467,0.22789 -0.47025,0.22789 -0.22437,0 -0.37253,-0.18062 -0.37253,-0.46284 0,-0.3616 0.18803,-0.7814 0.49565,-1.10702 0.28222,-0.2928 0.55704,-0.41239 0.9585,-0.41239 0.12312,0 0.30021,0.007 0.49918,0.0219 l -0.27834,1.39241 -0.0324,0.17357 c -0.004,0.0328 -0.007,0.0617 -0.007,0.0871 0,0.0794 0.0363,0.11571 0.11218,0.11571 0.10125,0 0.30374,-0.14852 0.51717,-0.387 l -0.0325,0.16263 c -0.26423,0.28575 -0.48471,0.41592 -0.69462,0.41592 -0.16263,0 -0.25329,-0.0938 -0.25329,-0.26387 0,-0.0579 0.0145,-0.16299 0.0434,-0.3041 l 0.0871,-0.43391 z m 0.0868,-0.74154 c -0.0977,-0.0363 -0.25682,-0.0653 -0.36195,-0.0653 -0.17356,0 -0.32914,0.0907 -0.42651,0.24624 -0.16651,0.27094 -0.31503,0.75248 -0.31503,1.02341 0,0.18098 0.0579,0.27869 0.16299,0.27869 0.10477,0 0.25682,-0.0977 0.37253,-0.23883 0.0903,-0.1083 0.19156,-0.24588 0.31115,-0.41239 0.16263,-0.22437 0.18062,-0.2533 0.25329,-0.39794 l 0.0794,-0.39758 c -0.0325,-0.0183 -0.0579,-0.0289 -0.0759,-0.0363"
       style="fill:#000000;fill-opacity:1;fill-rule:nonzero;stroke:none;stroke-width:0.0352778" />
    <path
       id="path87"
       d="M 23.242908,21.407314 H 23.07287 l 0.0071,-0.0469 c 0.0074,-0.0328 0.01094,-0.0617 0.01094,-0.0907 0,-0.16616 -0.122766,-0.27481 -0.314678,-0.27481 -0.06879,0 -0.148166,0.018 -0.202494,0.0508 -0.28575,0.15522 -0.524581,0.6544 -0.524581,1.09608 0,0.3182 0.148167,0.50976 0.390525,0.50976 0.180975,0 0.452262,-0.11571 0.792339,-0.33267 l -0.0254,0.13723 c -0.379589,0.25718 -0.712611,0.39088 -0.958497,0.39088 -0.332669,0 -0.560564,-0.25329 -0.560564,-0.62583 0,-0.33267 0.148167,-0.68368 0.397934,-0.95849 0.245886,-0.26423 0.557036,-0.41981 0.846313,-0.41981 0.141112,0 0.267759,0.0289 0.408517,0.0907 l -0.09737,0.47378"
       style="fill:#000000;fill-opacity:1;fill-rule:nonzero;stroke:none;stroke-width:0.0352778" />
    <path
       id="path88"
       d="m 34.383986,35.831344 c 0,-0.13405 0.0106,-0.21696 0.0543,-0.4452 l 0.10089,-0.50271 c 0.0254,-0.12277 0.0399,-0.22049 0.0399,-0.26035 0,-0.0759 -0.036,-0.11571 -0.1083,-0.11571 -0.10477,0 -0.30021,0.14463 -0.52105,0.38699 l 0.0325,-0.16263 c 0.2607,-0.2861 0.48471,-0.41628 0.69462,-0.41628 0.16298,0 0.25329,0.0942 0.25329,0.26424 0,0.0579 -0.0145,0.17356 -0.0399,0.30374 l -0.10477,0.52105 c -0.0289,0.14111 -0.0473,0.28575 -0.0473,0.36512 0,0.17745 0.0617,0.2533 0.2099,0.2533 0.387,0 0.7814,-0.59337 0.7814,-1.17546 0,-0.17392 -0.0289,-0.32561 -0.0942,-0.48859 h 0.39088 c 0.0254,0.11218 0.0254,0.12312 0.0254,0.19896 0,0.37642 -0.14111,0.73801 -0.44873,1.13948 -0.30727,0.40146 -0.62195,0.6223 -0.89359,0.6223 -0.19861,0 -0.32526,-0.19192 -0.32526,-0.48825"
       style="fill:#000000;fill-opacity:1;fill-rule:nonzero;stroke:none;stroke-width:0.0352778" />
    <path
       id="path89"
       d="m 34.405156,7.4803566 c 0,-0.133703 0.0106,-0.216958 0.054,-0.444853 l 0.10124,-0.503061 c 0.0254,-0.122767 0.0399,-0.220486 0.0399,-0.26035 0,-0.07585 -0.036,-0.115711 -0.1083,-0.115711 -0.10513,0 -0.30057,0.144639 -0.52105,0.386997 l 0.0325,-0.162631 c 0.2607,-0.28575 0.48471,-0.416277 0.69462,-0.416277 0.16263,0 0.25329,0.09419 0.25329,0.26423 0,0.05786 -0.0145,0.173567 -0.0399,0.303742 l -0.10477,0.521053 c -0.0293,0.141111 -0.0473,0.28575 -0.0473,0.365478 0,0.177094 0.0617,0.252941 0.2099,0.252941 0.387,0 0.7814,-0.593019 0.7814,-1.175455 0,-0.173567 -0.0289,-0.325614 -0.0942,-0.488598 h 0.39087 c 0.025,0.112184 0.025,0.12312 0.025,0.19932 0,0.376061 -0.14111,0.737658 -0.44838,1.139472 -0.30763,0.401108 -0.6223,0.621947 -0.89359,0.621947 -0.19897,0 -0.32526,-0.191558 -0.32526,-0.488244"
       style="fill:#000000;fill-opacity:1;fill-rule:nonzero;stroke:none;stroke-width:0.0352778" />
    <path
       id="path90"
       d="m 5.1263569,7.3780506 c 0,-0.134055 0.01094,-0.216958 0.05433,-0.444853 l 0.101245,-0.503061 c 0.02505,-0.122766 0.03951,-0.220486 0.03951,-0.26035 0,-0.07585 -0.03598,-0.115711 -0.108302,-0.115711 -0.104775,0 -0.300214,0.144639 -0.5207,0.386997 l 0.03245,-0.162983 c 0.26035,-0.285397 0.484717,-0.415572 0.694267,-0.415572 0.162983,0 0.253294,0.09384 0.253294,0.263878 0,0.05786 -0.01446,0.173566 -0.03951,0.303741 l -0.105128,0.521053 c -0.02893,0.141111 -0.04692,0.28575 -0.04692,0.365125 0,0.177447 0.06138,0.253295 0.209903,0.253295 0.386997,0 0.78105,-0.59302 0.78105,-1.175456 0,-0.173919 -0.02893,-0.325614 -0.09384,-0.488244 h 0.390525 c 0.0254,0.112183 0.0254,0.122766 0.0254,0.198966 0,0.376061 -0.141111,0.737659 -0.448733,1.13912 -0.30727,0.401814 -0.621948,0.6223 -0.893234,0.6223 -0.198966,0 -0.325614,-0.191559 -0.325614,-0.488245"
       style="fill:#000000;fill-opacity:1;fill-rule:nonzero;stroke:none;stroke-width:0.0352778" />
    <path
       id="path91"
       d="m 4.9252739,36.132974 c 0,-0.13406 0.01094,-0.21696 0.05433,-0.44521 l 0.101247,-0.50271 c 0.0254,-0.12276 0.03986,-0.22048 0.03986,-0.26035 0,-0.0759 -0.03634,-0.11571 -0.108656,-0.11571 -0.104775,0 -0.300214,0.14464 -0.5207,0.387 l 0.03246,-0.16299 c 0.26035,-0.28575 0.484717,-0.41592 0.694619,-0.41592 0.162631,0 0.252942,0.0942 0.252942,0.26423 0,0.0579 -0.01446,0.17357 -0.03951,0.30374 l -0.105128,0.52105 c -0.02893,0.14112 -0.04692,0.28575 -0.04692,0.36513 0,0.17745 0.06138,0.25329 0.209902,0.25329 0.386998,0 0.781403,-0.59302 0.781403,-1.17545 0,-0.17392 -0.02928,-0.32562 -0.09419,-0.4886 h 0.390525 c 0.0254,0.11218 0.0254,0.12312 0.0254,0.19897 0,0.37606 -0.141111,0.73801 -0.448381,1.13947 -0.307622,0.40146 -0.6223,0.6223 -0.893586,0.6223 -0.198967,0 -0.325614,-0.19191 -0.325614,-0.48824"
       style="fill:#000000;fill-opacity:1;fill-rule:nonzero;stroke:none;stroke-width:0.0352778" />
    <path
       id="path92"
       d="m 15.518486,15.543446 c -0.07232,0.357364 -0.14852,0.550334 -0.285045,0.730956 -0.201083,0.269522 -0.522464,0.409928 -0.912283,0.409928 -0.574322,0 -0.927806,-0.293511 -0.927806,-0.767292 0,-0.116417 0.01587,-0.245181 0.0441,-0.38982 l 0.261055,-1.309863 0.02434,-0.19685 c 0.0039,-0.02399 0.0078,-0.05221 0.0078,-0.08043 0,-0.08043 -0.01588,-0.08819 -0.152753,-0.100542 l -0.128411,-0.0078 -0.03598,-0.0042 0.02399,-0.120297 h 1.137002 l -0.02399,0.120297 -0.03634,0.0042 -0.136525,0.0078 c -0.156633,0.01235 -0.176741,0.02858 -0.216958,0.180976 l -0.05221,0.19685 -0.285397,1.450269 c -0.02011,0.09278 -0.0321,0.201083 -0.0321,0.285397 0,0.112536 0.01623,0.209198 0.04833,0.281517 0.07232,0.180622 0.301273,0.313267 0.538339,0.313267 0.237067,0 0.474134,-0.112536 0.634648,-0.293511 0.148872,-0.164395 0.229305,-0.365478 0.309386,-0.755298 l 0.253294,-1.281641 0.02822,-0.19685 c 0,-0.02399 0.0039,-0.05221 0.0039,-0.08043 0,-0.08043 -0.01623,-0.08819 -0.152753,-0.100542 l -0.128411,-0.0078 -0.03634,-0.0042 0.02434,-0.120297 h 0.928158 l -0.02434,0.120297 -0.03634,0.0042 -0.132291,0.0078 c -0.160867,0.01235 -0.180975,0.02858 -0.221192,0.180976 l -0.04833,0.19685 -0.261055,1.326091"
       style="fill:#000000;fill-opacity:1;fill-rule:nonzero;stroke:none;stroke-width:0.0352778" />
    <path
       id="path93"
       d="m 25.763506,29.319424 c 0,0.0321 0.0078,0.0564 0.01588,0.0684 0.02011,0.024 0.09666,0.0321 0.289278,0.0321 h 0.345722 c 0.100189,0 0.204964,-0.008 0.30939,-0.0201 0.12453,-0.0162 0.16051,-0.0483 0.18485,-0.15275 l 0.0441,-0.20073 0.012,-0.0402 h 0.20497 l -0.11642,0.58243 h -2.129724 l 0.02434,-0.12029 0.03598,-0.004 0.136878,-0.008 c 0.156633,-0.012 0.176741,-0.0279 0.216605,-0.18062 l 0.05221,-0.19297 0.373945,-1.88842 0.02787,-0.19685 c 0,-0.024 0.0042,-0.0522 0.0042,-0.0801 0,-0.0808 -0.01623,-0.0885 -0.152753,-0.10054 l -0.128411,-0.008 -0.03634,-0.004 0.02434,-0.1203 h 1.137003 l -0.02434,0.1203 -0.03598,0.004 -0.136878,0.008 c -0.156633,0.012 -0.176741,0.0282 -0.216605,0.18062 l -0.05221,0.19685 -0.373945,1.88842 c -0.02399,0.12065 -0.03598,0.19297 -0.03598,0.23707"
       style="fill:#000000;fill-opacity:1;fill-rule:nonzero;stroke:none;stroke-width:0.0352778" />
  </g>
</svg>
